# xmcd
#
# Track frame offsets:
#	150
#	1785
#	19605
#	38695
#	57932
#	75730
#	95662
#	114925
#	133280
#	151622
#	167425
#
# Disc length: 2531 seconds
#
# Revision: 4
# Processed by: cddbd v1.5.2PL0 Copyright (c) Steve Scherf et al.
# Submitted via: EasyCDDAExtractor 15.3.0.1
#
DISCID=7309e10b
DTITLE=Melina Leon - Mujeres Liberadas
DYEAR=1997
DGENRE=Latin
TTITLE0=Introduccion
TTITLE1=Mujeres Liberadas
TTITLE2=Viaje Al Cielo
TTITLE3=Devuelveme La Llave
TTITLE4=Ya No Soy Buena
TTITLE5=Espero
TTITLE6=Cadena Perpetua
TTITLE7=A Quien Vas A Engañar
TTITLE8=Es Mentira
TTITLE9=Te Crucifico O Te Santifico
TTITLE10=Atada A Tu Volcan
EXTD=YEAR: 1998
EXTT0=
EXTT1=
EXTT2=
EXTT3=
EXTT4=
EXTT5=
EXTT6=
EXTT7=
EXTT8=
EXTT9=
EXTT10=
PLAYORDER=
